<?xml version="1.0" encoding="UTF-8" standalone="no"?>
<svg
   xmlns:dc="http://purl.org/dc/elements/1.1/"
   xmlns:cc="http://creativecommons.org/ns#"
   xmlns:rdf="http://www.w3.org/1999/02/22-rdf-syntax-ns#"
   xmlns:svg="http://www.w3.org/2000/svg"
   xmlns="http://www.w3.org/2000/svg"
   viewBox="0 0 666.66669 666.66669"
   height="666.66669"
   width="666.66669"
   xml:space="preserve"
   id="svg2"
   version="1.1"><metadata
     id="metadata8"><rdf:RDF><cc:Work
         rdf:about=""><dc:format>image/svg+xml</dc:format><dc:type
           rdf:resource="http://purl.org/dc/dcmitype/StillImage" /></cc:Work></rdf:RDF></metadata><defs
     id="defs6" /><g
     transform="matrix(1.3333333,0,0,-1.3333333,0,666.66667)"
     id="g10"><g
       transform="scale(0.1)"
       id="g12"><path
         id="path14"
         style="fill:#796358;fill-opacity:1;fill-rule:nonzero;stroke:none"
         d="M 5000,0 H 0 V 5000 H 5000 V 0" /><path
         id="path16"
         style="fill:#5c4b44;fill-opacity:1;fill-rule:nonzero;stroke:none"
         d="M 5000,0 H 0 V 906.609 H 5000 V 0" /><path
         id="path18"
         style="fill:#9c7f70;fill-opacity:1;fill-rule:nonzero;stroke:none"
         d="m 3887.84,1170.05 c 0,-20.27 -16.43,-36.71 -36.71,-36.71 h -236.59 c -20.27,0 -36.71,16.44 -36.71,36.71 v 74.02 c 0,20.28 16.44,36.71 36.71,36.71 h 236.59 c 20.28,0 36.71,-16.43 36.71,-36.71 v -74.02" /><path
         id="path20"
         style="fill:#9d6a65;fill-opacity:1;fill-rule:nonzero;stroke:none"
         d="m 4252.84,1170.05 c 0,-20.27 -16.43,-36.71 -36.71,-36.71 h -236.59 c -20.27,0 -36.71,16.44 -36.71,36.71 v 74.02 c 0,20.28 16.44,36.71 36.71,36.71 h 236.59 c 20.28,0 36.71,-16.43 36.71,-36.71 v -74.02" /><path
         id="path22"
         style="fill:#9c7f70;fill-opacity:1;fill-rule:nonzero;stroke:none"
         d="m 4065.34,1356.12 c 0,-20.27 -16.43,-36.71 -36.71,-36.71 h -236.59 c -20.27,0 -36.71,16.44 -36.71,36.71 v 74.03 c 0,20.27 16.44,36.71 36.71,36.71 h 236.59 c 20.28,0 36.71,-16.44 36.71,-36.71 v -74.03" /><path
         id="path24"
         style="fill:#9c7f70;fill-opacity:1;fill-rule:nonzero;stroke:none"
         d="m 1558.31,1430.15 c 0,20.27 16.43,36.71 36.7,36.71 h 236.6 c 20.27,0 36.71,-16.44 36.71,-36.71 v -74.03 c 0,-20.27 -16.44,-36.71 -36.71,-36.71 h -236.6 c -20.27,0 -36.7,16.44 -36.7,36.71 v 74.03" /><path
         id="path26"
         style="fill:#9d6a65;fill-opacity:1;fill-rule:nonzero;stroke:none"
         d="m 1193.31,1430.15 c 0,20.27 16.43,36.71 36.7,36.71 h 236.6 c 20.27,0 36.71,-16.44 36.71,-36.71 v -74.03 c 0,-20.27 -16.44,-36.71 -36.71,-36.71 h -236.6 c -20.27,0 -36.7,16.44 -36.7,36.71 v 74.03" /><path
         id="path28"
         style="fill:#9c7f70;fill-opacity:1;fill-rule:nonzero;stroke:none"
         d="m 1380.81,1244.07 c 0,20.28 16.43,36.71 36.7,36.71 h 236.6 c 20.27,0 36.71,-16.43 36.71,-36.71 v -74.02 c 0,-20.27 -16.44,-36.71 -36.71,-36.71 h -236.6 c -20.27,0 -36.7,16.44 -36.7,36.71 v 74.02" /><path
         id="path30"
         style="fill:#9c7f70;fill-opacity:1;fill-rule:nonzero;stroke:none"
         d="m 1220.8,3131.59 c 0,-20.27 16.44,-36.71 36.71,-36.71 h 236.59 c 20.28,0 36.71,16.44 36.71,36.71 v 74.03 c 0,20.27 -16.43,36.7 -36.71,36.7 h -236.59 c -20.27,0 -36.71,-16.43 -36.71,-36.7 v -74.03" /><path
         id="path32"
         style="fill:#9d6a65;fill-opacity:1;fill-rule:nonzero;stroke:none"
         d="m 855.801,3131.59 c 0,-20.27 16.433,-36.71 36.711,-36.71 H 1129.1 c 20.28,0 36.71,16.44 36.71,36.71 v 74.03 c 0,20.27 -16.43,36.7 -36.71,36.7 H 892.512 c -20.278,0 -36.711,-16.43 -36.711,-36.7 v -74.03" /><path
         id="path34"
         style="fill:#9c7f70;fill-opacity:1;fill-rule:nonzero;stroke:none"
         d="m 1043.3,3317.67 c 0,-20.28 16.44,-36.71 36.71,-36.71 h 236.59 c 20.28,0 36.71,16.43 36.71,36.71 v 74.02 c 0,20.27 -16.43,36.71 -36.71,36.71 h -236.59 c -20.27,0 -36.71,-16.44 -36.71,-36.71 v -74.02" /><path
         id="path36"
         style="fill:#9d6a65;fill-opacity:1;fill-rule:nonzero;stroke:none"
         d="m 490.234,2435.04 c 0,20.27 16.438,36.71 36.707,36.71 h 236.594 c 20.274,0 36.707,-16.44 36.707,-36.71 v -74.02 c 0,-20.28 -16.433,-36.71 -36.707,-36.71 H 526.941 c -20.269,0 -36.707,16.43 -36.707,36.71 v 74.02" /><path
         id="path38"
         style="fill:#9c7f70;fill-opacity:1;fill-rule:nonzero;stroke:none"
         d="m 677.734,2248.96 c 0,20.28 16.438,36.71 36.707,36.71 h 236.594 c 20.274,0 36.707,-16.43 36.707,-36.71 v -74.02 c 0,-20.27 -16.433,-36.71 -36.707,-36.71 H 714.441 c -20.269,0 -36.707,16.44 -36.707,36.71 v 74.02" /><path
         id="path40"
         style="fill:#9d6a65;fill-opacity:1;fill-rule:nonzero;stroke:none"
         d="m 3700.35,1803.47 c 0,-20.28 -16.43,-36.71 -36.71,-36.71 h -236.59 c -20.27,0 -36.71,16.43 -36.71,36.71 v 74.02 c 0,20.27 16.44,36.71 36.71,36.71 h 236.59 c 20.28,0 36.71,-16.44 36.71,-36.71 v -74.02" /><path
         id="path42"
         style="fill:#9d6a65;fill-opacity:1;fill-rule:nonzero;stroke:none"
         d="m 3967.85,2720.32 c 0,-20.27 -16.43,-36.71 -36.71,-36.71 h -236.59 c -20.27,0 -36.71,16.44 -36.71,36.71 v 74.03 c 0,20.27 16.44,36.7 36.71,36.7 h 236.59 c 20.28,0 36.71,-16.43 36.71,-36.7 v -74.03" /><path
         id="path44"
         style="fill:#bb9886;fill-opacity:1;fill-rule:nonzero;stroke:none"
         d="m 3925.35,1997.35 c 0,-20.27 -16.43,-36.71 -36.71,-36.71 h -236.59 c -20.27,0 -36.71,16.44 -36.71,36.71 v 74.03 c 0,20.27 16.44,36.71 36.71,36.71 h 236.59 c 20.28,0 36.71,-16.44 36.71,-36.71 v -74.03" /><path
         id="path46"
         style="fill:#bb9886;fill-opacity:1;fill-rule:nonzero;stroke:none"
         d="m 4197.84,2487.67 c 0,-20.28 -16.43,-36.71 -36.71,-36.71 h -236.59 c -20.27,0 -36.71,16.43 -36.71,36.71 v 74.02 c 0,20.27 16.44,36.71 36.71,36.71 h 236.59 c 20.28,0 36.71,-16.44 36.71,-36.71 v -74.02" /><path
         id="path48"
         style="fill:#bb9886;fill-opacity:1;fill-rule:nonzero;stroke:none"
         d="m 3812.84,3243.95 c 0,-20.28 -16.43,-36.71 -36.71,-36.71 h -236.59 c -20.27,0 -36.71,16.43 -36.71,36.71 v 74.02 c 0,20.27 16.44,36.71 36.71,36.71 h 236.59 c 20.28,0 36.71,-16.44 36.71,-36.71 v -74.02" /><path
         id="path50"
         style="fill:#bb9886;fill-opacity:1;fill-rule:nonzero;stroke:none"
         d="m 2852.74,3645.09 c 0,-16.57 -13.42,-30 -30,-30 h -645.48 c -16.58,0 -30,13.43 -30,30 v 156.67 c 0,16.57 13.42,30 30,30 h 645.48 c 16.58,0 30,-13.43 30,-30 v -156.67" /><g
         transform="scale(10)"
         id="g52"><text
           id="text56"
           style="font-variant:normal;font-weight:bold;font-size:11.66219997px;font-family:Montserrat;-inkscape-font-specification:Montserrat-Bold;writing-mode:lr-tb;fill:#ffffff;fill-opacity:1;fill-rule:nonzero;stroke:none"
           transform="matrix(1,0,0,-1,222.682,367.623)"><tspan
             id="tspan54"
             y="0"
             x="0 8.6650143 18.053085 20.758717 29.097189 37.855011 45.925255">GO BACK</tspan></text>
</g><path
         id="path58"
         style="fill:#4d3e39;fill-opacity:1;fill-rule:nonzero;stroke:none"
         d="m 3502.83,532.102 c 0,-50.454 -423.72,-91.352 -946.41,-91.352 -522.69,0 -946.42,40.898 -946.42,91.352 0,50.457 423.73,91.359 946.42,91.359 522.69,0 946.41,-40.902 946.41,-91.359" /><path
         id="path60"
         style="fill:#b9b8b7;fill-opacity:1;fill-rule:nonzero;stroke:none"
         d="m 3056.66,2769.42 c 0,0 -76.98,412.93 -549.68,590.92 -383.97,144.57 -917.04,75.23 -1156.66,-421.42 -239.61,-496.65 38.41,-911.46 291.16,-1054.97 252.77,-143.53 746.29,-122.74 995.1,71.88 261.76,204.77 462.93,479.23 420.08,813.59" /><path
         id="path62"
         style="fill:#f0f0ef;fill-opacity:1;fill-rule:nonzero;stroke:none"
         d="m 3054.08,2443.89 c -7.78,-4.73 -16.82,-8.25 -27.46,-10.62 -36.49,-8.14 -66.69,-3.71 -92.35,13.53 -38.78,26.04 -69.86,83.26 -81.11,149.33 -9.68,56.94 -63.79,95.17 -120.61,85.53 -56.92,-9.69 -95.23,-63.69 -85.54,-120.62 21.16,-124.3 83.37,-229.22 170.69,-287.85 52.32,-35.14 111.85,-53 175.18,-53 25.87,0 52.37,2.97 79.28,8.99 43.26,9.65 81.49,27.12 113.97,51.65 -65.8,47.63 -107.13,111.13 -132.05,163.06" /><path
         id="path64"
         style="fill:#3a3a3b;fill-opacity:1;fill-rule:nonzero;stroke:none"
         d="m 2945.48,2440.31 c -3.83,1.93 -7.58,4.05 -11.21,6.49 -11.58,7.78 -22.45,18.39 -32.35,31.14 -21.22,-62 -39.23,-150.84 -14.96,-239.55 19.58,-6.97 39.78,-12.08 60.55,-15.01 -30.38,75.69 -19.53,156.57 -2.03,216.93" /><path
         id="path66"
         style="fill:#3a3a3b;fill-opacity:1;fill-rule:nonzero;stroke:none"
         d="m 3019.9,2432.03 c -19.46,-3.57 -37.13,-3.49 -53.2,0.45 6.44,-58.01 24.76,-139.64 74.62,-208.76 10.21,1.43 20.49,3.15 30.84,5.46 9.1,2.02 17.92,4.48 26.58,7.2 -51.88,60.77 -71.58,139.29 -78.84,195.65" /><path
         id="path68"
         style="fill:#fcd4c1;fill-opacity:1;fill-rule:nonzero;stroke:none"
         d="m 3269.18,2382.51 c 63.82,129.62 32.76,290.75 -13.2,389.35 -24.41,52.33 -86.65,74.97 -138.96,50.57 -52.33,-24.4 -74.98,-86.62 -50.57,-138.94 33.21,-71.22 39.57,-158.96 15.11,-208.63 -6.76,-13.73 -15.65,-23.79 -27.48,-30.97 24.92,-51.93 66.25,-115.43 132.05,-163.06 34.59,26.11 62.64,60.22 83.05,101.68" /><path
         id="path70"
         style="fill:#edb5a2;fill-opacity:1;fill-rule:nonzero;stroke:none"
         d="m 3299.22,2627.21 c -8.39,54.32 -24.59,104.64 -43.24,144.65 -12.23,26.19 -33.92,44.95 -59.1,54.09 l -69.84,-11.97 c -23.43,-4.98 -43.14,-17.85 -56.95,-35.24 -15.85,-28.34 -18.42,-63.58 -3.64,-95.25 18.8,-40.34 28.98,-85.96 29.84,-126.98 h 39.76 c 17.1,0 30.96,13.86 30.96,30.96 v 4.51 c 2.34,0.32 4.67,0.63 7.01,1.13 l 83.75,14.33 c 15.74,3.34 29.74,10.32 41.45,19.77" /><path
         id="path72"
         style="fill:#fcd4c1;fill-opacity:1;fill-rule:nonzero;stroke:none"
         d="m 3310.87,2749.15 c 11.4,-53.55 -22.76,-106.17 -76.32,-117.57 l -83.76,-14.33 c -53.55,-11.4 -106.18,22.76 -117.58,76.31 l -5.73,26.99 c -11.39,53.55 22.77,106.18 76.33,117.57 l 83.75,14.34 c 53.55,11.4 106.18,-22.76 117.57,-76.32 l 5.74,-26.99" /><path
         id="path74"
         style="fill:#fcd4c1;fill-opacity:1;fill-rule:nonzero;stroke:none"
         d="m 3143.78,2611.61 c 0,-17.11 -13.86,-30.96 -30.95,-30.96 h -50.05 c -17.1,0 -30.95,13.85 -30.95,30.96 v 6.89 c 0,17.09 13.85,30.95 30.95,30.95 h 50.05 c 17.09,0 30.95,-13.86 30.95,-30.95 v -6.89" /><path
         id="path76"
         style="fill:#333232;fill-opacity:1;fill-rule:nonzero;stroke:none"
         d="m 2862.42,1164.57 c 0,0 -103.47,-82.77 -104.56,-90.4 -1.09,-7.62 94.76,-139.408 150.3,-210.209 55.55,-70.789 93.67,-101.281 106.74,-95.84 13.07,5.438 33.76,32.668 31.58,84.961 -2.17,52.27 -23.96,157.928 -34.85,187.328 -10.89,29.4 -87.13,119.8 -149.21,124.16" /><path
         id="path78"
         style="fill:#333232;fill-opacity:1;fill-rule:nonzero;stroke:none"
         d="m 2211.28,851.148 c 0,0 -69.83,-149.277 -67.39,-156.578 2.44,-7.289 147.17,-82.191 228.55,-120.582 81.38,-38.406 129.12,-48.597 138.36,-37.879 9.24,10.731 15.56,44.34 -9.82,90.102 -25.36,45.758 -92.17,130.449 -115.08,151.871 -22.92,21.41 -117.16,96.988 -174.62,73.066" /><path
         id="path80"
         style="fill:#414042;fill-opacity:1;fill-rule:nonzero;stroke:none"
         d="m 2413.16,757.551 -233.76,74.711 c 179.47,247.178 203.64,627.158 28.26,854.458 l 213.84,165.01 c 252.13,-326.76 259.79,-751.97 -8.34,-1094.179" /><path
         id="path82"
         style="fill:#414042;fill-opacity:1;fill-rule:nonzero;stroke:none"
         d="m 3033.96,972.34 -193.89,188.05 c 88.34,91.08 120.85,174.05 96.63,246.59 -67.22,201.41 -287.84,217.59 -353.85,217.76 l 0.67,270.1 c 229.87,-0.57 510.67,-106.57 609.4,-402.34 40.35,-120.92 45.54,-309.31 -158.96,-520.16" /><path
         id="path84"
         style="fill:#414042;fill-opacity:1;fill-rule:nonzero;stroke:none"
         d="m 2167.91,1793.91 c 0,0 2.9,-110.37 76.96,-142.32 74.07,-31.94 200.41,-53.74 363.05,-33.4 162.65,20.34 264.31,63.36 284.64,102.11 20.32,38.75 21.78,118.62 -10.18,163.65 l -714.47,-90.04" /><path
         id="path86"
         style="fill:#fefefe;fill-opacity:1;fill-rule:nonzero;stroke:none"
         d="m 2363.59,2675.16 c 0,0 -127.44,-9.94 -186.97,-149.35 -59.54,-139.4 -65.35,-579.42 -11.62,-750.78 159.75,-81.32 596.86,-81.33 747.88,63.89 0,0 -65.35,185.87 -49.37,426.95 15.97,241.06 1.92,369.31 -72.44,409.29 h -427.48" /><path
         id="path88"
         style="fill:#414042;fill-opacity:1;fill-rule:nonzero;stroke:none"
         d="m 2861.86,2233.08 c 0.41,10.82 0.91,21.72 1.65,32.79 0.3,4.51 0.56,8.92 0.84,13.36 -309.01,-92.69 -618.31,-10.38 -729.27,26.09 -1.22,-14.78 -2.27,-29.87 -3.17,-45.19 80.37,-26.15 238.3,-68.05 425.44,-68.05 96.02,0 199.73,11.12 304.51,41" /><path
         id="path90"
         style="fill:#414042;fill-opacity:1;fill-rule:nonzero;stroke:none"
         d="m 2868.13,2353.87 c 0.57,15.79 0.94,30.93 1.12,45.52 -298.33,-83.27 -593.95,-4.63 -717.29,37.34 -2.63,-13.93 -5.05,-28.64 -7.25,-44.05 88.38,-30.09 251.13,-74.55 441.46,-74.55 89.51,0 185.16,9.93 281.96,35.74" /><path
         id="path92"
         style="fill:#414042;fill-opacity:1;fill-rule:nonzero;stroke:none"
         d="m 2868.22,2472.71 c -0.72,15.64 -1.8,30.35 -3.26,44.17 -269.27,-66.65 -532.46,-3.98 -671.52,42.11 -6.02,-10.16 -11.69,-21.15 -16.82,-33.18 -0.93,-2.17 -1.8,-4.63 -2.7,-6.94 97.64,-33.35 257.22,-75.49 440.27,-75.49 81.19,0 166.98,8.32 254.03,29.33" /><path
         id="path94"
         style="fill:#414042;fill-opacity:1;fill-rule:nonzero;stroke:none"
         d="m 2851.84,2588.27 c -4.54,15.6 -9.99,29.31 -16.52,41.15 -198.77,-37.36 -390.28,-7.73 -529.18,29.75 -16.29,-6.99 -34.57,-17.01 -52.8,-31.28 101.31,-30.78 237.24,-60.06 388.09,-60.06 67.72,0 138.49,6.12 210.41,20.44" /><path
         id="path96"
         style="fill:#414042;fill-opacity:1;fill-rule:nonzero;stroke:none"
         d="m 2863.34,2114.29 c -0.91,14.65 -1.58,29.69 -1.96,45.12 -312.02,-100.92 -628.11,-21.69 -732.89,10.55 -0.27,-15.23 -0.39,-30.52 -0.36,-45.79 74.59,-22.52 222.66,-58.98 399.54,-58.98 104.89,0 219.89,12.93 335.67,49.1" /><path
         id="path98"
         style="fill:#414042;fill-opacity:1;fill-rule:nonzero;stroke:none"
         d="m 2898.34,1888.91 c -3.16,12.31 -6.62,26.76 -10.1,43.01 -303.52,-125.87 -626.16,-69.21 -746.61,-40.39 2.12,-16.4 4.5,-32.05 7.12,-46.87 68.63,-15.81 182.26,-35.88 317,-35.88 131.54,0 283.21,19.18 432.59,80.13" /><path
         id="path100"
         style="fill:#414042;fill-opacity:1;fill-rule:nonzero;stroke:none"
         d="m 2875.84,1999.24 c -2.18,14.01 -4.23,28.72 -6.07,44.14 -310.67,-112.36 -631.93,-41.41 -739.63,-11.46 0.67,-15.65 1.51,-31.06 2.52,-46.23 71.11,-19.27 204.65,-48.27 364.49,-48.27 116.91,0 247.89,15.62 378.69,61.82" /><path
         id="path102"
         style="fill:#fcd4c1;fill-opacity:1;fill-rule:nonzero;stroke:none"
         d="m 1736.63,1655.67 c 4.7,-54.47 50.37,-95.57 104.05,-95.57 3.01,0 6.05,0.13 9.11,0.4 57.53,4.96 100.15,55.63 95.18,113.16 -12.05,139.47 5.13,262.82 39.54,368.28 -81.92,32.9 -146.98,75.39 -185.33,103.6 -48.09,-128.74 -79.63,-292.07 -62.55,-489.87" /><path
         id="path104"
         style="fill:#fefefe;fill-opacity:1;fill-rule:nonzero;stroke:none"
         d="m 2365.29,2460.52 c 56.92,9.75 95.14,63.81 85.38,120.72 -9.76,56.91 -63.82,95.2 -120.72,85.38 -151.28,-25.95 -309.92,-143.05 -424.34,-313.23 -36.61,-54.44 -75.04,-123.79 -106.43,-207.85 38.35,-28.21 103.41,-70.7 185.33,-103.6 81.29,249.12 259.45,397.77 380.78,418.58" /><path
         id="path106"
         style="fill:#fcd4c1;fill-opacity:1;fill-rule:nonzero;stroke:none"
         d="m 2007.74,1700.29 c -8.65,-16.09 -28.7,-22.12 -44.8,-13.46 l -51.44,27.64 c -16.08,8.65 -22.12,28.7 -13.46,44.8 v 0 c 8.65,16.09 28.7,22.13 44.79,13.47 l 51.44,-27.65 c 16.09,-8.65 22.13,-28.71 13.47,-44.8 v 0" /><path
         id="path108"
         style="fill:#414042;fill-opacity:1;fill-rule:nonzero;stroke:none"
         d="m 1920.81,2375.24 c -5.14,-7.19 -10.23,-14.45 -15.2,-21.85 -3.47,-5.15 -6.95,-10.56 -10.44,-15.98 32.39,-38.05 83.54,-86.68 161.55,-135.54 7.58,12.76 15.38,25.07 23.41,36.96 -80.37,50.54 -130.26,100.53 -159.32,136.41" /><path
         id="path110"
         style="fill:#414042;fill-opacity:1;fill-rule:nonzero;stroke:none"
         d="m 2255.04,2646.58 c -13.59,-4.89 -27.18,-10.45 -40.72,-16.67 21.14,-49.94 55.18,-111.67 109.74,-180.7 14.27,5.21 28.1,9.05 41.23,11.31 1.64,0.28 3.21,0.72 4.82,1.08 -58.54,71.39 -93.83,134.93 -115.07,184.98" /><path
         id="path112"
         style="fill:#414042;fill-opacity:1;fill-rule:nonzero;stroke:none"
         d="m 1822.5,2202.55 c 41.8,-33.4 100.89,-71.4 182.11,-105.88 5.57,13.67 11.41,27.01 17.52,39.99 -82.75,35.25 -140.99,74.22 -180.28,106.86 -6.58,-13.19 -13.05,-26.78 -19.35,-40.97" /><path
         id="path114"
         style="fill:#414042;fill-opacity:1;fill-rule:nonzero;stroke:none"
         d="m 2020.54,2492.53 c -10.7,-10.55 -21.23,-21.47 -31.56,-32.78 25.1,-41.01 68.03,-96.97 139.39,-157.39 9.69,11.35 19.53,22.16 29.48,32.36 -74.02,62.67 -115.39,119.92 -137.31,157.81" /><path
         id="path116"
         style="fill:#414042;fill-opacity:1;fill-rule:nonzero;stroke:none"
         d="m 2097.51,2559.22 c 21.58,-44.84 58.35,-104.3 120.43,-170.75 12.06,9.32 24.1,17.85 36.04,25.47 -64.31,68.13 -100.26,128.39 -120.06,171.05 -12.25,-8.08 -24.39,-16.69 -36.41,-25.77" /><path
         id="path118"
         style="fill:#363535;fill-opacity:1;fill-rule:nonzero;stroke:none"
         d="m 2791.07,3168.06 c 0,0 -87.12,70.24 -182.96,76.77 -95.85,6.55 -245.07,-0.53 -340.37,-133.96 -95.29,-133.42 -109.45,-262.48 -95.84,-276.64 13.61,-14.16 71.88,-45.2 124.71,-23.97 0,0 98.57,271.75 494.46,357.8" /><path
         id="path120"
         style="fill:#fcd4c1;fill-opacity:1;fill-rule:nonzero;stroke:none"
         d="m 2385.01,2769.42 c 0,-42.7 -27.95,-77.32 -62.44,-77.32 -34.49,0 -62.45,34.62 -62.45,77.32 0,42.71 27.96,77.34 62.45,77.34 34.49,0 62.44,-34.63 62.44,-77.34" /><path
         id="path122"
         style="fill:#52443f;fill-opacity:1;fill-rule:nonzero;stroke:none"
         d="m 2809.78,3035.18 c 31.58,-14.16 86.04,-78.06 85.68,-90.4 -0.37,-12.35 -31.23,-12.35 -31.23,-12.35 0,0 18.51,-81.31 11.98,-88.21 -6.53,-6.91 -44.28,10.54 -54.81,23.96 -10.54,13.43 -11.62,167 -11.62,167" /><path
         id="path124"
         style="fill:#fcd4c1;fill-opacity:1;fill-rule:nonzero;stroke:none"
         d="m 2775.28,3073.3 c 0,0 67.53,-75.16 67.53,-193.88 0,-118.71 0,-139.4 0,-186.24 0,-46.82 -10.89,-187.33 -163.37,-187.33 -152.48,0 -315.85,47.93 -315.85,162.28 0,114.36 0,266.84 0,266.84 l 411.69,138.33" /><path
         id="path126"
         style="fill:#52443f;fill-opacity:1;fill-rule:nonzero;stroke:none"
         d="m 2821.4,3036.27 c -7.26,-52.29 -132.88,-114 -138.69,-106.02 -5.81,7.99 0,52.66 0,52.66 -50.1,-65.72 -157.56,-88.95 -159.74,-81.7 -2.18,7.26 4.35,45.02 4.35,45.02 -25.41,-33.41 -69.7,-51.92 -72.6,-46.3 -2.91,5.64 -4.36,82.6 30.49,136.34 h 336.19" /><path
         id="path128"
         style="fill:#d4b4a3;fill-opacity:1;fill-rule:nonzero;stroke:none"
         d="m 2422.04,2954.95 c 0,0 0,-129.62 0,-165.37 0,-35.76 -2.9,-128.69 47.2,-170.81 50.1,-42.12 114.72,-61 197.5,-54.46 82.77,6.53 132.56,25.54 170.11,70.13 0,0 5.6,-83.21 -85.88,-128.59 -91.49,-45.37 -214.21,-22.86 -267.22,-6.16 -53,16.69 -144.48,70.42 -144.48,148.84 0,78.42 0,250.41 0,250.41 l 82.77,56.01" /><path
         id="path130"
         style="fill:#414042;fill-opacity:1;fill-rule:nonzero;stroke:none"
         d="m 2339.27,2843.92 c 35.52,31.58 53.05,73 201.85,123.68 156.84,53.41 271.14,46.72 271.14,46.72 l 32.31,-4.69 c 0,0 9.51,2.68 6.6,26.64 -2.91,23.94 -29.05,103.1 -35.58,115.44 -6.54,12.34 -15.26,29.76 -39.94,30.5 -24.68,0.73 -172.81,2.17 -301.33,-83.51 -128.52,-85.67 -189.95,-268.18 -189.95,-268.18 0,0 24.76,24.94 54.9,13.4" /><path
         id="path132"
         style="fill:#3e3430;fill-opacity:1;fill-rule:nonzero;stroke:none"
         d="m 2644.95,2828.59 c 0,-17.63 -10.4,-31.94 -23.23,-31.94 -12.83,0 -23.24,14.31 -23.24,31.94 0,17.65 10.41,31.96 23.24,31.96 12.83,0 23.23,-14.31 23.23,-31.96" /><path
         id="path134"
         style="fill:#3e3430;fill-opacity:1;fill-rule:nonzero;stroke:none"
         d="m 2839.99,2831.93 c 0,-15.87 -9.37,-28.74 -20.92,-28.74 -11.54,0 -20.91,12.87 -20.91,28.74 0,15.88 9.37,28.75 20.91,28.75 11.55,0 20.92,-12.87 20.92,-28.75" /><path
         id="path136"
         style="fill:#f6837b;fill-opacity:1;fill-rule:nonzero;stroke:none"
         d="m 2748.06,2818.98 c -13.6,0.74 -29.95,-19.61 -33.76,-49.56 -3.82,-29.95 -4.36,-54.45 9.79,-61.53 14.16,-7.08 58.99,-8.17 72.25,-2.18 13.25,5.99 22.87,31.58 13.44,60.45 -9.45,28.86 -41.58,51.73 -61.72,52.82" /><path
         id="path138"
         style="fill:#52443f;fill-opacity:1;fill-rule:nonzero;stroke:none"
         d="m 2601.03,2912.47 c -7.28,-0.98 -19.24,-13.67 5.81,-40.17 25.04,-26.49 44.28,-44.05 57.35,-39.69 13.08,4.35 23.97,17.79 12.35,42.47 -11.63,24.69 -56.34,39.96 -75.51,37.39" /><path
         id="path140"
         style="fill:#52443f;fill-opacity:1;fill-rule:nonzero;stroke:none"
         d="m 2831.52,2910.33 c 5.69,-0.05 16.11,-8.66 -0.6,-31.44 -16.72,-22.8 -29.83,-38.14 -40.3,-36.05 -10.46,2.08 -20.15,11.37 -13.58,31.47 6.56,20.1 39.48,36.15 54.48,36.02" /><path
         id="path142"
         style="fill:#9a2945;fill-opacity:1;fill-rule:nonzero;stroke:none"
         d="m 2750.09,2632.14 c -4.97,-0.39 -9.34,-0.48 -13.93,-0.54 -4.53,-0.07 -9.04,0.01 -13.53,0.14 -9.01,0.28 -17.96,0.94 -26.88,1.93 -17.82,1.99 -35.5,5.48 -52.68,10.76 -17.16,5.36 -33.81,12.66 -48.91,22.47 -3.74,2.54 -7.47,5.05 -10.96,7.91 -3.6,2.67 -6.88,5.8 -10.2,8.77 -3.19,3.19 -6.39,6.31 -9.21,9.78 -3.04,3.29 -5.55,7.01 -8.24,10.53 l -0.26,0.33 -0.09,0.23 c -0.37,0.79 -0.41,1.13 -0.55,1.65 -0.1,0.49 -0.16,0.95 -0.17,1.43 -0.07,0.96 0.06,1.9 0.29,2.81 0.47,1.83 1.46,3.36 2.6,4.45 2.29,2.28 4.9,3.23 7.37,3.95 l 1.81,-4.47 c -1.81,-1.13 -3.51,-2.4 -4.34,-3.69 -0.41,-0.66 -0.66,-1.22 -0.67,-1.72 0.01,-0.24 0,-0.46 0.07,-0.69 l 0.11,-0.3 c 0.02,-0.03 0.15,-0.26 0.04,-0.01 l -0.36,0.56 c 2.92,-3.03 5.58,-6.24 8.76,-8.99 2.97,-2.93 6.26,-5.5 9.47,-8.1 3.4,-2.42 6.66,-4.96 10.25,-7.04 3.48,-2.27 7.16,-4.2 10.8,-6.15 14.79,-7.47 30.71,-12.49 46.98,-15.68 16.3,-3.13 32.92,-4.59 49.54,-4.64 8.31,-0.03 16.63,0.28 24.88,0.9 4.13,0.33 8.24,0.72 12.32,1.21 4.02,0.49 8.26,1.06 11.84,1.75 l 3.85,-29.54" /><path
         id="path144"
         style="fill:#b9b8b7;fill-opacity:1;fill-rule:nonzero;stroke:none"
         d="m 3240.35,2744.24 c 0,-56.92 69.71,-126.2 123.08,-145.81 53.37,-19.6 130.69,-16.17 133.96,70.12 3.26,86.3 -34.85,270.37 -101.3,270.37 -66.43,0 -163.37,-87.66 -155.74,-194.68" /><g
         transform="scale(10)"
         id="g146"><text
           id="text156"
           style="font-variant:normal;font-weight:300;font-size:14.0163002px;font-family:Montserrat;-inkscape-font-specification:Montserrat-Light;writing-mode:lr-tb;fill:#4d3e39;fill-opacity:1;fill-rule:nonzero;stroke:none"
           transform="matrix(1,0,0,-1,209.74,453.641)"><tspan
             id="tspan148"
             y="0"
             x="0 9.1246109 19.258396 29.391008 40.786263 50.920048 54.761318 62.848724 72.435875">ERROR 404</tspan><tspan
             id="tspan150"
             y="16.819099"
             x="-31.4727 -24.464397 -15.185607 -11.443254 -5.0938706 -1.2534044 8.2216148 16.309019 25.223387 33.46497 37.305435 49.233635 57.321041 63.670425 67.510277 73.859665 79.214134 87.876205 91.772736 100.01432 109.20901">This page was stolen.</tspan><tspan
             id="tspan152"
             y="33.638599"
             x="-42.482899 -33.105995 -29.209463 -20.968832 -12.881427 -6.5320425 1.7095418 5.5500078 13.063202 21.725275 36.358292 44.599144 48.43961 57.914631 66.002037 73.864349 81.895691 85.736153 97.845551 107.12486 110.86721 114.76374">Please come back while</tspan><tspan
             id="tspan154"
             y="50.4589"
             x="-49.182899 -35.615005 -27.373421 -23.533577 -18.067221 -12.461249 -5.4250669 -1.5852356 3.7692561 12.43133 16.271795 23.728348 31.815754 37.169758 45.032902 54.312229 58.152061 63.618416 72.897209 81.138794 84.979256 92.841545 101.9101 105.80663 115.2822 120.49627 124.23862">We try to catch the culprit</tspan></text>
</g><path
         id="path158"
         style="fill:#bb9886;fill-opacity:1;fill-rule:nonzero;stroke:none"
         d="m 1800.22,210.25 c -1.4,-3.039 -3.3,-5.328 -5.64,-6.809 -2.36,-1.492 -4.96,-2.23 -7.81,-2.23 -2.8,0 -5.39,0.781 -7.78,2.359 -2.36,1.551 -4.23,3.871 -5.6,6.961 -1.37,3.098 -2.05,6.828 -2.05,11.231 0,4.136 0.64,7.789 1.93,10.949 1.29,3.148 3.11,5.551 5.43,7.23 2.34,1.68 5,2.52 7.95,2.52 2.85,0 5.47,-0.82 7.87,-2.441 2.4,-1.661 4.3,-4.04 5.7,-7.129 1.41,-3.102 2.09,-6.821 2.09,-11.129 0,-4.59 -0.68,-8.422 -2.09,-11.512 z m 10.65,68.422 c -2.46,0 -4.34,-0.863 -5.66,-2.563 -1.33,-1.699 -2,-4.199 -2,-7.519 v -23.918 c -3.04,3.32 -6.17,5.777 -9.37,7.379 -3.21,1.597 -7.15,2.398 -11.82,2.398 -8.06,0 -14.57,-2.828 -19.53,-8.469 -4.94,-5.671 -7.42,-13.558 -7.42,-23.691 0,-4.789 0.64,-9.238 1.87,-13.359 1.25,-4.129 3.09,-7.7 5.51,-10.75 2.4,-3.039 5.26,-5.391 8.58,-7.032 3.3,-1.636 6.87,-2.457 10.76,-2.457 2.93,0 5.62,0.411 8.1,1.231 2.46,0.797 4.77,1.988 6.88,3.558 2.13,1.559 4.27,3.59 6.44,6.071 v -1.602 c 0,-2.969 0.73,-5.25 2.17,-6.859 1.45,-1.598 3.28,-2.399 5.49,-2.399 2.26,0 4.1,0.778 5.53,2.329 1.42,1.539 2.13,3.839 2.13,6.929 v 71.461 c 0,3.051 -0.67,5.36 -2,6.922 -1.32,1.559 -3.22,2.34 -5.66,2.34" /><path
         id="path160"
         style="fill:#bb9886;fill-opacity:1;fill-rule:nonzero;stroke:none"
         d="m 1842.98,226.859 c 0.55,5.461 2.13,9.59 4.71,12.383 2.59,2.789 5.89,4.18 9.94,4.18 4.24,0 7.65,-1.371 10.25,-4.121 2.58,-2.762 4.08,-6.903 4.47,-12.442 z m 41.54,-7.39 c 2.33,1.211 3.5,3.851 3.5,7.929 0,4.383 -1.14,8.692 -3.38,12.934 -2.25,4.238 -5.65,7.699 -10.2,10.348 -4.51,2.679 -9.94,4.011 -16.27,4.011 -4.88,0 -9.29,-0.781 -13.3,-2.351 -4,-1.559 -7.36,-3.801 -10.09,-6.731 -2.72,-2.929 -4.81,-6.429 -6.24,-10.527 -1.42,-4.102 -2.12,-8.543 -2.12,-13.32 0,-10.18 2.89,-18.223 8.67,-24.16 5.76,-5.922 13.87,-8.911 24.26,-8.911 4.57,0 8.59,0.61 12.07,1.778 3.51,1.211 6.42,2.672 8.75,4.492 2.3,1.801 4.02,3.668 5.19,5.648 1.13,1.95 1.7,3.653 1.7,5.133 0,1.656 -0.51,2.93 -1.54,3.848 -1.02,0.902 -2.37,1.371 -4.03,1.371 -1.54,0 -2.73,-0.352 -3.57,-1.082 -2.01,-1.887 -3.65,-3.399 -4.92,-4.508 -1.25,-1.109 -2.64,-2.152 -4.14,-3.121 -1.51,-0.98 -3.07,-1.66 -4.67,-2.129 -1.6,-0.449 -3.38,-0.691 -5.31,-0.691 -2.89,0 -5.53,0.711 -7.91,2.129 -2.41,1.433 -4.34,3.562 -5.76,6.371 -1.45,2.812 -2.19,6.05 -2.23,9.73 h 31.68 c 4.24,0 7.54,0.602 9.86,1.809" /><path
         id="path162"
         style="fill:#bb9886;fill-opacity:1;fill-rule:nonzero;stroke:none"
         d="m 1938.78,223.832 c -3.18,1.699 -7.29,3.16 -12.31,4.387 -4.23,1.043 -7.55,1.922 -9.96,2.621 -2.42,0.699 -4.33,1.601 -5.76,2.699 -1.42,1.09 -2.15,2.481 -2.15,4.172 0,1.879 0.98,3.418 2.91,4.648 1.96,1.27 4.38,1.883 7.31,1.883 2.85,0 5.1,-0.472 6.76,-1.433 1.66,-0.938 3.12,-2.2 4.33,-3.789 1.51,-1.891 2.83,-3.321 4.01,-4.25 1.17,-0.961 2.57,-1.45 4.23,-1.45 2.31,0 4.09,0.61 5.32,1.782 1.25,1.187 1.89,2.707 1.89,4.57 0,1.719 -0.6,3.449 -1.78,5.226 -1.15,1.782 -2.85,3.403 -5.09,4.872 -2.23,1.46 -5.02,2.628 -8.38,3.492 -3.32,0.879 -7.09,1.308 -11.29,1.308 -5.35,0 -9.9,-0.84 -13.67,-2.578 -3.79,-1.722 -6.64,-4.023 -8.6,-6.91 -1.93,-2.891 -2.91,-5.961 -2.91,-9.203 0,-3.629 1.06,-6.699 3.17,-9.199 2.09,-2.5 4.88,-4.508 8.38,-6.039 3.51,-1.5 8.04,-2.961 13.63,-4.332 4.94,-1.207 8.47,-2.438 10.64,-3.75 2.17,-1.309 3.25,-3.379 3.25,-6.227 0,-1.863 -1.04,-3.523 -3.13,-4.961 -2.07,-1.449 -4.73,-2.172 -7.97,-2.172 -4,0 -7.15,0.699 -9.47,2.133 -2.31,1.438 -4.32,3.566 -5.98,6.477 -0.8,1.492 -1.68,2.66 -2.6,3.5 -0.91,0.82 -2.2,1.25 -3.9,1.25 -1.95,0 -3.56,-0.649 -4.81,-1.918 -1.29,-1.25 -1.91,-2.77 -1.91,-4.551 0,-2.692 1,-5.371 2.97,-8.039 1.97,-2.68 5.04,-4.91 9.2,-6.68 4.16,-1.781 9.14,-2.68 14.96,-2.68 6.07,0 11.25,0.821 15.51,2.457 4.25,1.641 7.48,4.063 9.64,7.25 2.19,3.184 3.27,7.012 3.27,11.481 0,2.973 -0.82,5.613 -2.46,7.93 -1.65,2.312 -4.07,4.32 -7.25,6.023" /><path
         id="path164"
         style="fill:#bb9886;fill-opacity:1;fill-rule:nonzero;stroke:none"
         d="m 1964.85,254.57 c -2.36,0 -4.29,-0.8 -5.78,-2.422 -1.48,-1.617 -2.22,-4.039 -2.22,-7.25 v -46.347 c 0,-3.16 0.74,-5.602 2.22,-7.301 1.49,-1.699 3.42,-2.559 5.78,-2.559 2.39,0 4.34,0.84 5.88,2.5 1.55,1.661 2.33,4.118 2.33,7.36 v 46.82 c 0,2.891 -0.78,5.16 -2.33,6.777 -1.54,1.622 -3.49,2.422 -5.88,2.422" /><path
         id="path166"
         style="fill:#bb9886;fill-opacity:1;fill-rule:nonzero;stroke:none"
         d="m 1965.05,277.969 c -2.19,0 -4.1,-0.739 -5.74,-2.227 -1.64,-1.5 -2.46,-3.383 -2.46,-5.683 0,-2.539 0.8,-4.489 2.4,-5.879 1.6,-1.371 3.53,-2.071 5.8,-2.071 2.17,0 4.06,0.7 5.62,2.11 1.59,1.402 2.39,3.363 2.39,5.84 0,2.582 -0.82,4.531 -2.44,5.882 -1.63,1.348 -3.48,2.028 -5.57,2.028" /><path
         id="path168"
         style="fill:#bb9886;fill-opacity:1;fill-rule:nonzero;stroke:none"
         d="m 2025.99,210.922 c -1.51,-2.91 -3.46,-5.082 -5.86,-6.531 -2.39,-1.442 -4.92,-2.161 -7.62,-2.161 -4.55,0 -8.26,1.68 -11.11,5.04 -2.87,3.351 -4.32,8.339 -4.32,14.902 0,6.476 1.39,11.5 4.18,15.019 2.79,3.508 6.5,5.27 11.13,5.27 4.75,0 8.58,-1.84 11.49,-5.531 2.91,-3.668 4.37,-8.809 4.37,-15.41 0,-4.161 -0.76,-7.688 -2.26,-10.598 z m 10.27,43.648 c -2.17,0 -3.97,-0.761 -5.35,-2.3 -1.39,-1.551 -2.07,-3.731 -2.07,-6.528 v -2.203 c -2.89,3.75 -6.02,6.5 -9.38,8.281 -3.38,1.75 -7.34,2.629 -11.93,2.629 -3.83,0 -7.36,-0.679 -10.57,-2.027 -3.2,-1.383 -6.03,-3.402 -8.49,-6.09 -2.44,-2.703 -4.32,-6 -5.67,-9.922 -1.33,-3.91 -1.97,-8.301 -1.97,-13.168 0,-6.543 1.07,-12.281 3.28,-17.281 2.15,-4.981 5.27,-8.852 9.32,-11.621 4.06,-2.781 8.81,-4.16 14.22,-4.16 4.51,0 8.39,0.91 11.66,2.73 3.26,1.82 6.13,4.469 8.63,7.969 -0.08,-5.309 -0.2,-9.16 -0.35,-11.559 -0.16,-2.41 -0.71,-4.648 -1.64,-6.738 -0.92,-2.09 -2.54,-3.73 -4.87,-4.883 -2.3,-1.179 -5.56,-1.758 -9.76,-1.758 -2.05,0 -3.87,0.188 -5.45,0.559 -1.58,0.371 -2.95,0.941 -4.06,1.699 -1.14,0.781 -2.17,1.723 -3.09,2.821 -0.94,1.07 -1.84,2.16 -2.69,3.222 -1.8,2.11 -3.87,3.137 -6.25,3.137 -1.9,0 -3.52,-0.598 -4.87,-1.867 -1.35,-1.231 -2.01,-2.832 -2.01,-4.832 0,-2.61 1.21,-5.149 3.56,-7.629 2.38,-2.461 5.76,-4.481 10.15,-6.059 4.4,-1.543 9.38,-2.32 14.96,-2.32 6.08,0 11.19,0.598 15.28,1.828 4.1,1.211 7.4,3.109 9.94,5.629 2.54,2.543 4.37,5.742 5.5,9.613 1.16,3.879 1.74,8.508 1.74,13.899 v 47.058 c 0,3.84 -0.5,6.77 -1.56,8.821 -1.01,2.031 -3.09,3.05 -6.21,3.05" /><path
         id="path170"
         style="fill:#bb9886;fill-opacity:1;fill-rule:nonzero;stroke:none"
         d="m 2109.78,243.91 c -1.65,3.379 -4.16,6.012 -7.52,7.871 -3.36,1.867 -7.19,2.789 -11.47,2.789 -4.39,0 -8.26,-0.879 -11.66,-2.64 -3.38,-1.75 -6.5,-4.508 -9.34,-8.282 v 1.961 c 0,1.93 -0.35,3.59 -1.03,4.942 -0.7,1.32 -1.62,2.34 -2.77,3 -1.16,0.691 -2.43,1.019 -3.87,1.019 -2.33,0 -4.16,-0.761 -5.51,-2.281 -1.35,-1.527 -2.01,-3.828 -2.01,-6.918 v -46.82 c 0,-3.16 0.76,-5.602 2.25,-7.301 1.5,-1.699 3.41,-2.559 5.76,-2.559 2.4,0 4.39,0.821 5.9,2.457 1.52,1.641 2.28,4.122 2.28,7.403 v 20.301 c 0,6.597 0.41,11.109 1.19,13.527 1.12,2.992 2.85,5.371 5.22,7.09 2.38,1.722 5,2.582 7.89,2.582 4.43,0 7.4,-1.43 8.88,-4.242 1.49,-2.829 2.23,-6.911 2.23,-12.258 v -27 c 0,-3.16 0.74,-5.602 2.27,-7.301 1.5,-1.699 3.45,-2.559 5.86,-2.559 2.38,0 4.31,0.84 5.78,2.5 1.5,1.661 2.24,4.118 2.24,7.36 v 30.16 c 0,3.559 -0.17,6.469 -0.48,8.769 -0.32,2.29 -1.02,4.43 -2.09,6.43" /><path
         id="path172"
         style="fill:#bb9886;fill-opacity:1;fill-rule:nonzero;stroke:none"
         d="m 2136.67,226.859 c 0.57,5.461 2.13,9.59 4.71,12.383 2.59,2.789 5.91,4.18 9.96,4.18 4.22,0 7.63,-1.371 10.23,-4.121 2.58,-2.762 4.08,-6.903 4.47,-12.442 z m 41.54,-7.39 c 2.35,1.211 3.52,3.851 3.52,7.929 0,4.383 -1.13,8.692 -3.4,12.934 -2.25,4.238 -5.64,7.699 -10.18,10.348 -4.53,2.679 -9.96,4.011 -16.28,4.011 -4.87,0 -9.3,-0.781 -13.31,-2.351 -3.98,-1.559 -7.34,-3.801 -10.07,-6.731 -2.74,-2.929 -4.81,-6.429 -6.23,-10.527 -1.43,-4.102 -2.15,-8.543 -2.15,-13.32 0,-10.18 2.89,-18.223 8.67,-24.16 5.78,-5.922 13.87,-8.911 24.28,-8.911 4.55,0 8.57,0.61 12.07,1.778 3.51,1.211 6.4,2.672 8.73,4.492 2.3,1.801 4.04,3.668 5.17,5.648 1.16,1.95 1.74,3.653 1.74,5.133 0,1.656 -0.51,2.93 -1.54,3.848 -1.04,0.902 -2.38,1.371 -4.04,1.371 -1.55,0 -2.74,-0.352 -3.56,-1.082 -2.01,-1.887 -3.67,-3.399 -4.92,-4.508 -1.27,-1.109 -2.68,-2.152 -4.16,-3.121 -1.51,-0.98 -3.07,-1.66 -4.65,-2.129 -1.62,-0.449 -3.38,-0.691 -5.33,-0.691 -2.87,0 -5.53,0.711 -7.91,2.129 -2.4,1.433 -4.32,3.562 -5.76,6.371 -1.45,2.812 -2.19,6.05 -2.23,9.73 h 31.7 c 4.24,0 7.52,0.602 9.84,1.809" /><path
         id="path174"
         style="fill:#bb9886;fill-opacity:1;fill-rule:nonzero;stroke:none"
         d="m 2231.42,210.25 c -1.41,-3.039 -3.29,-5.328 -5.65,-6.809 -2.34,-1.492 -4.94,-2.23 -7.79,-2.23 -2.83,0 -5.41,0.781 -7.77,2.359 -2.39,1.551 -4.26,3.871 -5.61,6.961 -1.37,3.098 -2.07,6.828 -2.07,11.231 0,4.136 0.64,7.789 1.93,10.949 1.29,3.148 3.11,5.551 5.43,7.23 2.35,1.68 5,2.52 7.97,2.52 2.83,0 5.47,-0.82 7.85,-2.441 2.41,-1.661 4.3,-4.04 5.71,-7.129 1.4,-3.102 2.09,-6.821 2.09,-11.129 0,-4.59 -0.69,-8.422 -2.09,-11.512 z m 10.66,68.422 c -2.46,0 -4.36,-0.863 -5.68,-2.563 -1.31,-1.699 -2,-4.199 -2,-7.519 v -23.918 c -3.04,3.32 -6.15,5.777 -9.37,7.379 -3.2,1.597 -7.13,2.398 -11.8,2.398 -8.08,0 -14.59,-2.828 -19.53,-8.469 -4.94,-5.671 -7.42,-13.558 -7.42,-23.691 0,-4.789 0.62,-9.238 1.87,-13.359 1.25,-4.129 3.07,-7.7 5.49,-10.75 2.42,-3.039 5.28,-5.391 8.58,-7.032 3.3,-1.636 6.89,-2.457 10.76,-2.457 2.95,0 5.64,0.411 8.1,1.231 2.48,0.797 4.77,1.988 6.9,3.558 2.11,1.559 4.26,3.59 6.42,6.071 v -1.602 c 0,-2.969 0.73,-5.25 2.17,-6.859 1.45,-1.598 3.28,-2.399 5.51,-2.399 2.25,0 4.08,0.778 5.51,2.329 1.42,1.539 2.13,3.839 2.13,6.929 v 71.461 c 0,3.051 -0.65,5.36 -1.98,6.922 -1.32,1.559 -3.22,2.34 -5.66,2.34" /><path
         id="path176"
         style="fill:#bb9886;fill-opacity:1;fill-rule:nonzero;stroke:none"
         d="m 2327.96,206.52 c -2.95,-3.528 -6.47,-5.309 -10.53,-5.309 -4.78,0 -8.65,1.738 -11.6,5.219 -2.97,3.449 -4.41,8.39 -4.41,14.859 0,4.391 0.68,8.18 2.07,11.352 1.36,3.199 3.28,5.621 5.68,7.3 2.42,1.68 5.18,2.52 8.26,2.52 2.99,0 5.63,-0.84 7.89,-2.52 2.25,-1.679 3.99,-4.062 5.22,-7.152 1.23,-3.078 1.83,-6.769 1.83,-11.027 0,-6.621 -1.48,-11.68 -4.41,-15.242 z m 7.89,44.101 c -4.06,2.559 -8.77,3.828 -14.16,3.828 -4.67,0 -8.57,-0.84 -11.74,-2.519 -3.16,-1.68 -6.27,-4.121 -9.32,-7.258 v 24.738 c 0,2.969 -0.68,5.262 -2.01,6.86 -1.34,1.601 -3.26,2.402 -5.76,2.402 -2.38,0 -4.24,-0.863 -5.55,-2.524 -1.32,-1.679 -1.99,-4.156 -1.99,-7.437 v -70.762 c 0,-3.051 0.67,-5.347 2.03,-6.91 1.37,-1.57 3.21,-2.348 5.51,-2.348 2.25,0 4.12,0.778 5.57,2.348 1.46,1.563 2.2,3.859 2.2,6.91 v 1.602 c 1.78,-2.051 3.23,-3.59 4.3,-4.629 1.1,-1.031 2.42,-2.031 3.95,-2.992 1.54,-0.969 3.41,-1.75 5.6,-2.34 2.19,-0.61 4.53,-0.899 7.03,-0.899 4.09,0 7.82,0.821 11.2,2.457 3.37,1.641 6.25,3.993 8.63,6.993 2.38,2.988 4.18,6.55 5.43,10.648 1.25,4.102 1.87,8.59 1.87,13.5 0,6.641 -1.11,12.402 -3.36,17.242 -2.24,4.84 -5.37,8.539 -9.43,11.09" /><path
         id="path178"
         style="fill:#bb9886;fill-opacity:1;fill-rule:nonzero;stroke:none"
         d="m 2405.28,253.59 c -1.11,0.672 -2.28,0.98 -3.53,0.98 -1.7,0 -3.03,-0.289 -3.95,-0.898 -0.92,-0.563 -1.79,-1.723 -2.63,-3.442 -0.82,-1.691 -1.76,-4.058 -2.8,-7.05 l -12.99,-37.09 -13.71,39.89 c -0.91,2.77 -1.95,4.879 -3.14,6.36 -1.19,1.492 -2.95,2.23 -5.29,2.23 -1.35,0 -2.64,-0.351 -3.89,-1.07 -1.25,-0.711 -2.23,-1.66 -2.93,-2.859 -0.72,-1.172 -1.07,-2.461 -1.07,-3.84 0,-1.309 0.6,-3.403 1.83,-6.289 l 19.94,-50.223 -1.48,-3.609 c -1.1,-2.66 -2.07,-4.668 -2.93,-6.02 -0.86,-1.379 -1.82,-2.34 -2.87,-2.89 -1.08,-0.54 -2.54,-0.84 -4.42,-0.84 -0.74,0 -1.62,0.14 -2.65,0.371 -0.82,0.238 -1.68,0.359 -2.56,0.359 -2.21,0 -3.89,-0.512 -5,-1.512 -1.13,-1.007 -1.7,-2.457 -1.7,-4.308 0,-2.719 1.19,-4.61 3.55,-5.649 2.39,-1.011 5.94,-1.519 10.69,-1.519 4.86,0 8.73,0.719 11.6,2.219 2.87,1.468 5.18,3.621 6.91,6.371 1.74,2.777 3.54,6.597 5.36,11.468 l 21.13,55.309 c 0.51,1.422 0.94,2.832 1.29,4.203 0.37,1.399 0.62,2.457 0.78,3.219 0,1.23 -0.31,2.379 -0.92,3.5 -0.61,1.109 -1.48,1.988 -2.62,2.629" /><path
         id="path180"
         style="fill:#bb9886;fill-opacity:1;fill-rule:nonzero;stroke:none"
         d="m 2629.31,278.711 c -5.34,0 -9.55,-0.68 -12.62,-2.031 -3.07,-1.371 -5.25,-3.559 -6.54,-6.52 -1.29,-3.012 -1.9,-7.039 -1.9,-12.109 v -4.891 h -3.88 c -5.41,0 -8.15,-1.91 -8.15,-5.82 0,-1.731 0.65,-3.141 1.97,-4.219 1.33,-1.109 3.15,-1.641 5.59,-1.641 h 4.47 v -42.941 c 0,-3.187 0.74,-5.629 2.25,-7.289 1.56,-1.699 3.46,-2.539 5.76,-2.539 2.42,0 4.37,0.84 5.88,2.539 1.56,1.66 2.3,4.102 2.3,7.289 v 42.941 h 3.97 c 2.91,0 5.15,0.36 6.78,1.079 1.68,0.703 2.48,2.402 2.48,5.023 0,3.727 -3.07,5.578 -9.26,5.578 h -3.97 v 3.871 c 0,3.219 0.41,5.68 1.23,7.399 0.84,1.718 2.74,2.601 5.65,2.601 1.07,0 2.4,-0.14 3.9,-0.351 1.55,-0.25 2.68,-0.371 3.29,-0.371 1.32,0 2.52,0.55 3.49,1.601 1.02,1.07 1.51,2.34 1.51,3.852 0,4.668 -4.71,6.949 -14.2,6.949" /><path
         id="path182"
         style="fill:#bb9886;fill-opacity:1;fill-rule:nonzero;stroke:none"
         d="m 2680.89,252.051 c -3.22,1.719 -6.47,2.558 -9.9,2.558 -3.42,0 -6.1,-0.839 -8.19,-2.558 -2.01,-1.699 -4,-4.199 -5.93,-7.539 -0.12,3.34 -0.79,5.84 -1.98,7.539 -1.19,1.719 -3.12,2.558 -5.82,2.558 -5.25,0 -7.89,-3.648 -7.89,-10.937 v -45.133 c 0,-3.23 0.78,-5.687 2.27,-7.328 1.48,-1.68 3.38,-2.5 5.78,-2.5 2.36,0 4.3,0.801 5.86,2.461 1.5,1.637 2.34,4.098 2.34,7.367 v 13.551 c 0,4.859 0.14,9 0.43,12.379 0.33,3.383 0.92,6.312 1.7,8.793 0.84,2.418 2.03,4.238 3.54,5.527 1.5,1.231 3.43,1.852 5.82,1.852 1.71,0 3.75,-0.352 6.01,-1.071 2.25,-0.718 3.71,-1.109 4.34,-1.109 1.58,0 3.04,0.621 4.41,1.93 1.33,1.269 2.01,2.929 2.01,4.879 0,2.82 -1.58,5.082 -4.8,6.781" /><path
         id="path184"
         style="fill:#bb9886;fill-opacity:1;fill-rule:nonzero;stroke:none"
         d="m 2700.19,226.871 c 0.56,5.469 2.12,9.578 4.74,12.371 2.6,2.809 5.92,4.18 9.92,4.18 4.28,0 7.64,-1.352 10.28,-4.121 2.59,-2.742 4.04,-6.879 4.45,-12.43 z m 41.58,-7.379 c 2.32,1.207 3.49,3.848 3.49,7.906 0,4.403 -1.11,8.692 -3.39,12.954 -2.21,4.238 -5.65,7.699 -10.18,10.328 -4.51,2.699 -9.96,4.05 -16.29,4.05 -4.86,0 -9.3,-0.781 -13.28,-2.332 -4.02,-1.578 -7.34,-3.808 -10.1,-6.757 -2.73,-2.942 -4.84,-6.422 -6.21,-10.539 -1.46,-4.102 -2.19,-8.543 -2.19,-13.321 0,-10.179 2.91,-18.242 8.69,-24.179 5.79,-5.942 13.87,-8.891 24.3,-8.891 4.53,0 8.58,0.609 12.07,1.781 3.5,1.168 6.41,2.688 8.75,4.469 2.33,1.82 4.04,3.668 5.22,5.66 1.11,1.938 1.66,3.66 1.66,5.121 0,1.656 -0.49,2.93 -1.53,3.848 -1.03,0.941 -2.38,1.39 -4.06,1.39 -1.52,0 -2.69,-0.371 -3.53,-1.082 -2.04,-1.886 -3.68,-3.398 -4.95,-4.488 -1.27,-1.129 -2.63,-2.191 -4.14,-3.121 -1.5,-0.98 -3.08,-1.699 -4.66,-2.129 -1.61,-0.488 -3.36,-0.711 -5.32,-0.711 -2.89,0 -5.5,0.711 -7.93,2.133 -2.38,1.449 -4.29,3.559 -5.76,6.348 -1.44,2.812 -2.17,6.07 -2.24,9.75 h 31.73 c 4.24,0 7.5,0.601 9.85,1.812" /><path
         id="path186"
         style="fill:#bb9886;fill-opacity:1;fill-rule:nonzero;stroke:none"
         d="m 2767.63,226.871 c 0.52,5.469 2.11,9.578 4.68,12.371 2.62,2.809 5.92,4.18 9.97,4.18 4.23,0 7.63,-1.352 10.25,-4.121 2.6,-2.742 4.1,-6.879 4.49,-12.43 z m 41.54,-7.379 c 2.32,1.207 3.52,3.848 3.52,7.906 0,4.403 -1.16,8.692 -3.4,12.954 -2.21,4.238 -5.63,7.699 -10.12,10.328 -4.63,2.699 -10.06,4.05 -16.37,4.05 -4.86,0 -9.31,-0.781 -13.3,-2.332 -4,-1.578 -7.36,-3.808 -10.08,-6.757 -2.73,-2.942 -4.8,-6.422 -6.23,-10.539 -1.44,-4.102 -2.16,-8.543 -2.16,-13.321 0,-10.179 2.91,-18.242 8.67,-24.179 5.8,-5.942 13.86,-8.891 24.29,-8.891 4.52,0 8.6,0.609 12.11,1.781 3.48,1.168 6.39,2.688 8.71,4.469 2.35,1.82 4.07,3.668 5.18,5.66 1.17,1.938 1.72,3.66 1.72,5.121 0,1.656 -0.47,2.93 -1.5,3.848 -1.04,0.941 -2.39,1.39 -4.07,1.39 -1.5,0 -2.69,-0.371 -3.55,-1.082 -2.01,-1.886 -3.67,-3.398 -4.92,-4.488 -1.29,-1.129 -2.64,-2.191 -4.16,-3.121 -1.53,-0.98 -3.07,-1.699 -4.69,-2.129 -1.58,-0.488 -3.36,-0.711 -5.29,-0.711 -2.9,0 -5.55,0.711 -7.93,2.133 -2.41,1.449 -4.32,3.559 -5.77,6.348 -1.42,2.812 -2.16,6.07 -2.2,9.75 h 31.72 c 4.19,0 7.5,0.601 9.82,1.812" /><path
         id="path188"
         style="fill:#bb9886;fill-opacity:1;fill-rule:nonzero;stroke:none"
         d="m 2864.52,210.609 c -1.37,-3.129 -3.2,-5.468 -5.51,-7.058 -2.3,-1.52 -4.82,-2.321 -7.48,-2.321 -4.55,0 -8.28,1.801 -11.32,5.372 -3.07,3.578 -4.61,8.609 -4.61,15.039 0,6.859 1.56,12.031 4.61,15.57 3.08,3.488 6.83,5.269 11.32,5.269 2.82,0 5.39,-0.82 7.68,-2.46 2.3,-1.641 4.12,-3.981 5.43,-7.051 1.31,-3.071 1.97,-6.739 1.97,-11.02 0,-4.429 -0.7,-8.219 -2.09,-11.34 z m 4.77,40.012 c -4.2,2.578 -8.83,3.871 -13.79,3.871 -4.14,0 -7.89,-0.902 -11.13,-2.672 -3.33,-1.761 -6.49,-4.519 -9.54,-8.269 v 1.941 c 0,2.969 -0.7,5.188 -2.16,6.778 -1.45,1.562 -3.3,2.339 -5.63,2.339 -2.32,0 -4.16,-0.777 -5.51,-2.289 -1.32,-1.539 -1.99,-3.8 -1.99,-6.91 v -69.941 c 0,-3.559 0.49,-6.207 1.45,-8.071 1.01,-1.828 3,-2.75 6.05,-2.75 5.18,0 7.79,3.594 7.79,10.684 v 24.34 c 2.86,-3.582 5.86,-6.352 9.01,-8.172 3.14,-1.871 7.03,-2.789 11.66,-2.789 3.85,0 7.42,0.758 10.8,2.269 3.34,1.52 6.21,3.731 8.67,6.54 2.46,2.832 4.4,6.312 5.78,10.492 1.41,4.179 2.11,8.789 2.11,13.769 0,6.758 -1.23,12.59 -3.67,17.578 -2.4,4.942 -5.7,8.692 -9.9,11.262" /><path
         id="path190"
         style="fill:#bb9886;fill-opacity:1;fill-rule:nonzero;stroke:none"
         d="m 2898.99,254.609 c -2.36,0 -4.25,-0.8 -5.8,-2.437 -1.44,-1.641 -2.2,-4.051 -2.2,-7.231 v -46.402 c 0,-3.129 0.76,-5.547 2.2,-7.289 1.55,-1.699 3.44,-2.539 5.8,-2.539 2.41,0 4.32,0.82 5.9,2.5 1.55,1.641 2.29,4.098 2.29,7.328 v 46.871 c 0,2.871 -0.74,5.121 -2.29,6.762 -1.58,1.637 -3.49,2.437 -5.9,2.437" /><path
         id="path192"
         style="fill:#bb9886;fill-opacity:1;fill-rule:nonzero;stroke:none"
         d="m 2899.17,278.012 c -2.17,0 -4.06,-0.762 -5.7,-2.231 -1.66,-1.48 -2.48,-3.383 -2.48,-5.679 0,-2.52 0.8,-4.481 2.42,-5.86 1.58,-1.371 3.49,-2.094 5.76,-2.094 2.19,0 4.08,0.723 5.66,2.114 1.59,1.379 2.35,3.34 2.35,5.84 0,2.578 -0.82,4.546 -2.42,5.918 -1.61,1.32 -3.46,1.992 -5.59,1.992" /><path
         id="path194"
         style="fill:#bb9886;fill-opacity:1;fill-rule:nonzero;stroke:none"
         d="m 2972.59,204.32 -16.62,26.129 8.59,7.891 c 4.4,3.949 6.6,7.129 6.6,9.512 0,1.918 -0.68,3.539 -2.01,4.828 -1.37,1.281 -3.05,1.929 -5.08,1.929 -1.72,0 -3.12,-0.429 -4.31,-1.308 -1.23,-0.86 -2.93,-2.5 -5.18,-4.86 l -18.24,-19.121 v 39.309 c 0,3.301 -0.72,5.82 -2.19,7.519 -1.48,1.704 -3.46,2.563 -5.92,2.563 -2.56,0 -4.57,-0.922 -5.95,-2.832 -1.37,-1.879 -2.09,-4.609 -2.09,-8.199 v -69.141 c 0,-3.23 0.74,-5.687 2.16,-7.328 1.41,-1.68 3.38,-2.5 5.88,-2.5 2.13,0 4.05,0.84 5.67,2.539 1.64,1.66 2.44,4.059 2.44,7.191 v 12.891 l 8.81,8.297 14.29,-23.52 c 1.82,-2.789 3.28,-4.718 4.36,-5.8 1.03,-1.09 2.6,-1.598 4.59,-1.598 2.24,0 4.1,0.719 5.53,2.211 1.4,1.5 2.11,3.508 2.11,6.09 0,0.898 -0.28,1.898 -0.81,2.886 -0.52,1.024 -1.42,2.461 -2.63,4.422" /><path
         id="path196"
         style="fill:#bb9886;fill-opacity:1;fill-rule:nonzero;stroke:none"
         d="m 2994.5,206.582 c -2.5,0 -4.59,-0.883 -6.31,-2.621 -1.7,-1.731 -2.56,-3.801 -2.56,-6.231 0,-2.871 0.9,-5.089 2.68,-6.64 1.8,-1.598 3.89,-2.379 6.35,-2.379 2.36,0 4.43,0.781 6.23,2.398 1.76,1.59 2.62,3.813 2.62,6.621 0,2.45 -0.86,4.559 -2.62,6.27 -1.8,1.699 -3.91,2.582 -6.39,2.582" /><path
         id="path198"
         style="fill:#bb9886;fill-opacity:1;fill-rule:nonzero;stroke:none"
         d="m 3068.33,215.84 c -1.64,0 -3.05,-0.551 -4.2,-1.559 -1.15,-1.039 -2.19,-2.441 -3.18,-4.261 -1.78,-3.11 -3.81,-5.391 -6.16,-6.899 -2.32,-1.5 -5.09,-2.242 -8.33,-2.242 -2.43,0 -4.63,0.453 -6.67,1.41 -2.01,0.93 -3.73,2.281 -5.15,4.082 -1.45,1.789 -2.52,3.981 -3.28,6.52 -0.73,2.558 -1.12,5.371 -1.12,8.418 0,6.461 1.45,11.621 4.4,15.332 2.93,3.75 6.82,5.629 11.56,5.629 3.32,0 6.08,-0.77 8.22,-2.27 2.19,-1.48 4.24,-3.77 6.23,-6.738 1.08,-1.582 2.09,-2.692 2.99,-3.403 0.88,-0.679 2.01,-1.027 3.38,-1.027 2.01,0 3.77,0.68 5.24,2.027 1.44,1.352 2.14,2.993 2.14,4.903 0,1.937 -0.62,3.988 -1.93,6.168 -1.27,2.191 -3.14,4.242 -5.55,6.211 -2.46,1.918 -5.41,3.519 -8.9,4.73 -3.54,1.25 -7.37,1.859 -11.56,1.859 -6.76,0 -12.6,-1.39 -17.49,-4.199 -4.84,-2.781 -8.57,-6.722 -11.13,-11.82 -2.58,-5.121 -3.87,-10.981 -3.87,-17.66 0,-9.801 2.82,-17.629 8.42,-23.492 5.63,-5.817 13.44,-8.75 23.46,-8.75 4.71,0 8.96,0.64 12.71,1.91 3.75,1.25 6.88,2.953 9.34,5.023 2.46,2.067 4.34,4.258 5.53,6.559 1.23,2.289 1.83,4.461 1.83,6.469 0,1.679 -0.66,3.3 -1.99,4.8 -1.29,1.512 -2.93,2.27 -4.94,2.27" /><path
         id="path200"
         style="fill:#bb9886;fill-opacity:1;fill-rule:nonzero;stroke:none"
         d="m 3124.56,206.332 c -2.91,-3.73 -6.82,-5.59 -11.72,-5.59 -3.24,0 -6.03,0.86 -8.47,2.539 -2.39,1.68 -4.22,4.078 -5.51,7.289 -1.29,3.16 -1.94,6.828 -1.94,11.071 0,4.281 0.67,8.031 1.98,11.25 1.29,3.199 3.12,5.629 5.54,7.269 2.43,1.641 5.22,2.461 8.4,2.461 4.9,0 8.81,-1.82 11.72,-5.551 2.89,-3.672 4.36,-8.808 4.36,-15.429 0,-6.5 -1.47,-11.621 -4.36,-15.309 z m 11.91,39.137 c -2.89,2.91 -6.28,5.172 -10.27,6.761 -4.02,1.602 -8.46,2.379 -13.36,2.379 -4.82,0 -9.24,-0.777 -13.26,-2.339 -3.98,-1.59 -7.38,-3.79 -10.21,-6.68 -2.8,-2.891 -4.97,-6.371 -6.47,-10.449 -1.46,-4.09 -2.25,-8.582 -2.25,-13.5 0,-4.84 0.77,-9.301 2.21,-13.321 1.49,-4 3.67,-7.5 6.56,-10.468 2.86,-2.93 6.25,-5.211 10.16,-6.762 3.93,-1.598 8.36,-2.399 13.26,-2.399 4.92,0 9.36,0.801 13.36,2.348 3.95,1.582 7.36,3.82 10.2,6.75 2.87,2.91 5.02,6.41 6.56,10.492 1.46,4.078 2.23,8.559 2.23,13.36 0,4.879 -0.77,9.32 -2.21,13.398 -1.49,4 -3.65,7.481 -6.51,10.43" /><path
         id="path202"
         style="fill:#bb9886;fill-opacity:1;fill-rule:nonzero;stroke:none"
         d="m 3235.67,251.871 c -3.18,1.719 -7.03,2.621 -11.44,2.621 -3.79,0 -7.25,-0.801 -10.37,-2.402 -3.17,-1.621 -6.08,-4.078 -8.85,-7.379 -1.89,3.258 -4.28,5.719 -7.23,7.34 -2.93,1.621 -6.42,2.441 -10.47,2.441 -3.94,0 -7.48,-0.781 -10.7,-2.402 -3.2,-1.559 -6.21,-4.039 -9.04,-7.379 v 1.519 c 0,2.622 -0.74,4.668 -2.21,6.168 -1.5,1.454 -3.34,2.211 -5.57,2.211 -2.26,0 -4.12,-0.777 -5.56,-2.379 -1.39,-1.589 -2.09,-3.89 -2.09,-6.96 v -46.34 c 0,-3.379 0.78,-5.918 2.34,-7.66 1.55,-1.7 3.58,-2.579 6.06,-2.579 2.48,0 4.47,0.879 5.99,2.579 1.53,1.742 2.29,4.281 2.29,7.66 v 21.871 c 0,6.84 0.84,12.07 2.52,15.66 1.68,3.699 5.17,5.508 10.49,5.508 2.63,0 4.59,-0.719 5.82,-2.199 1.21,-1.411 1.97,-3.309 2.26,-5.508 0.28,-2.27 0.39,-5.453 0.39,-9.532 v -25.8 c 0,-3.418 0.78,-5.938 2.33,-7.68 1.48,-1.699 3.49,-2.559 5.95,-2.559 2.54,0 4.54,0.86 6.08,2.559 1.58,1.742 2.32,4.262 2.32,7.68 v 21.519 c 0,6.949 0.63,11.781 1.78,14.531 1.07,2.09 2.58,3.829 4.51,5.079 1.92,1.25 3.93,1.91 6.08,1.91 2.65,0 4.64,-0.719 5.97,-2.149 1.27,-1.422 2.09,-3.179 2.39,-5.289 0.27,-2.09 0.42,-4.859 0.42,-8.359 V 198.93 c 0,-3.379 0.79,-5.918 2.35,-7.66 1.58,-1.7 3.55,-2.579 6.03,-2.579 2.52,0 4.59,0.86 6.12,2.559 1.54,1.742 2.3,4.262 2.3,7.68 v 31.621 c 0,6.289 -0.68,10.91 -2.07,13.859 -1.58,3.231 -3.96,5.731 -7.19,7.461" /><path
         id="path204"
         style="fill:#bb9886;fill-opacity:1;fill-rule:nonzero;stroke:none"
         d="m 2452.72,225.57 c -0.01,0.039 -0.01,0.051 -0.01,0.051 0,0 0,-0.012 0.01,-0.051" /><path
         id="path206"
         style="fill:#bb9886;fill-opacity:1;fill-rule:nonzero;stroke:none"
         d="m 2453.54,220.391 v 0 c -0.29,1.468 -0.54,2.949 -0.72,4.379 0.18,-1.45 0.43,-2.93 0.72,-4.379" /><path
         id="path208"
         style="fill:#bb9886;fill-opacity:1;fill-rule:nonzero;stroke:none"
         d="m 2458.9,205.352 c -0.02,0.058 -0.06,0.14 -0.1,0.218 0.04,-0.078 0.08,-0.16 0.1,-0.218" /><path
         id="path210"
         style="fill:#bb9886;fill-opacity:1;fill-rule:nonzero;stroke:none"
         d="m 2458.39,206.352 c -0.14,0.269 -0.27,0.558 -0.41,0.839 0.14,-0.3 0.27,-0.57 0.41,-0.839" /><path
         id="path212"
         style="fill:#bb9886;fill-opacity:1;fill-rule:nonzero;stroke:none"
         d="m 2455.05,214.59 c 0.8,-2.5 1.76,-4.918 2.85,-7.231 -1.13,2.371 -2.05,4.789 -2.83,7.231 h -0.02" /><path
         id="path214"
         style="fill:#bb9886;fill-opacity:1;fill-rule:nonzero;stroke:none"
         d="m 2507.35,293.18 -0.76,2.601 c 2.99,0.629 5.24,3.301 5.24,6.469 0,3.629 -2.97,6.602 -6.61,6.602 -3.65,0 -6.6,-2.973 -6.6,-6.602 0,-3.168 2.25,-5.84 5.24,-6.469 l 0.84,-2.89 c -10.22,-1.411 -18.34,-5.391 -18.34,-5.391 l 1.42,-4.391 c 6.18,2.051 11.55,3.301 16.41,3.821 4.75,0.511 8.34,0.73 11.27,0.73 3.12,0 5.45,-0.262 8.07,-0.691 l 0.78,4.75 c 0,0 -7.33,2.261 -16.96,1.461" /><path
         id="path216"
         style="fill:#bb9886;fill-opacity:1;fill-rule:nonzero;stroke:none"
         d="m 2454.52,268.121 c -0.17,-0.23 -4.96,-4.641 -8.75,-12.812 -0.15,0.281 -0.35,0.531 -0.56,0.761 -1.14,1.231 -2.74,1.879 -4.73,1.84 h -0.1 c -1.25,0 -2.11,0.41 -2.67,0.922 0.56,0.699 0.89,1.598 0.89,2.578 0,2.301 -1.87,4.199 -4.18,4.199 -2.3,0 -4.18,-1.898 -4.18,-4.199 0,-2.308 1.88,-4.16 4.18,-4.16 0.36,0 0.71,0.039 1.04,0.109 1.03,-1.129 2.66,-2.148 5.04,-2.089 1.25,0.019 2.15,-0.309 2.73,-0.969 0.71,-0.75 0.94,-1.84 1.02,-2.66 l -0.02,-0.039 c -2.74,-7.442 -1.95,-16.68 -1.95,-16.68 l 6.6,-0.25 c 0.13,3.359 0.62,9.238 2.32,13.918 3.3,9.07 7.42,14.711 7.58,14.961 l 0.04,0.039 c 0.23,0.32 0.47,0.609 0.7,0.902 l -1.95,1.406 -3.05,2.223" /><path
         id="path218"
         style="fill:#bb9886;fill-opacity:1;fill-rule:nonzero;stroke:none"
         d="m 2572.94,282.129 c -2.31,0 -4.18,-1.859 -4.18,-4.16 0,-0.367 0.06,-0.719 0.16,-1.059 -1.16,-1.031 -2.15,-2.648 -2.11,-5.051 0.02,-1.238 -0.32,-2.129 -0.98,-2.738 -0.53,-0.473 -1.19,-0.699 -1.84,-0.859 -4.92,6.879 -10.97,11.097 -10.97,11.097 l -4.75,-5.097 c 3.6,-3.262 7.23,-7.352 10.8,-12.442 2.44,-3.519 5,-8.05 7.11,-12.578 l 6.39,3.047 c 0,0 -2.91,7.203 -7.03,13.691 0.72,0.25 1.42,0.622 2.07,1.192 1.25,1.129 1.87,2.726 1.83,4.738 -0.02,1.289 0.39,2.172 0.92,2.762 0.72,-0.551 1.6,-0.902 2.58,-0.902 2.32,0 4.18,1.871 4.18,4.199 0,2.301 -1.86,4.16 -4.18,4.16" /><path
         id="path220"
         style="fill:#bb9886;fill-opacity:1;fill-rule:nonzero;stroke:none"
         d="m 2556.34,224.629 c -8.81,-4.277 -23.32,-9.957 -42.37,-12.617 -7.51,-1.032 -14.76,-1.422 -21.44,-1.422 -8.69,0 -16.37,0.64 -22.27,1.402 -6.72,0.817 -11.97,1.879 -15.19,2.598 0.78,-2.442 1.7,-4.86 2.83,-7.231 0,0 0.06,-0.129 0.08,-0.168 0.14,-0.281 0.27,-0.57 0.41,-0.839 0.14,-0.282 0.27,-0.551 0.41,-0.782 0.04,-0.078 0.08,-0.16 0.1,-0.218 1.89,-3.571 4.18,-6.832 6.75,-9.692 9.01,-9.84 18.17,-11.379 18.27,-11.398 l 0.13,-0.02 0.14,-0.043 c 0.08,-0.039 8.2,-2.66 20.57,-2.66 12.16,0 24.1,2.441 35.46,7.293 8.42,4.309 16.39,10.859 20.34,16.68 3.04,4.527 5.25,9.328 6.56,14.328 0.68,2.66 1.21,6.941 0.9,11.41 -2.46,-1.66 -6.39,-4.039 -11.68,-6.621" /><path
         id="path222"
         style="fill:#bb9886;fill-opacity:1;fill-rule:nonzero;stroke:none"
         d="m 2538.29,243.832 c -6.01,0 -10.88,4.898 -10.88,10.898 0,6.032 4.87,10.891 10.88,10.891 6,0 10.88,-4.859 10.88,-10.891 0,-6 -4.88,-10.898 -10.88,-10.898 z m -51.5,-12.973 c -9.73,0 -17.6,7.871 -17.6,17.602 0,9.719 7.87,17.59 17.6,17.59 9.72,0 17.59,-7.871 17.59,-17.59 0,-9.731 -7.87,-17.602 -17.59,-17.602 z m 36.44,52.602 c -2.65,0.43 -4.76,0.68 -7.77,0.68 -2.79,0 -6.27,-0.231 -10.9,-0.7 -4.65,-0.492 -9.82,-1.722 -15.84,-3.73 -8.42,-2.84 -16.03,-7.25 -22.03,-12.82 l -0.2,-0.172 c -0.89,-0.821 -2.75,-2.539 -4.88,-5.258 -0.25,-0.371 -4.08,-5.781 -7.09,-14.082 -2.26,-6.207 -2.17,-15.27 -2.17,-15.367 v -0.02 c 0,-2.113 0.12,-4.222 0.36,-6.312 0,0 0,-0.071 0.01,-0.11 0.02,-0.281 0.08,-0.531 0.1,-0.8 0.18,-1.43 0.43,-2.911 0.74,-4.379 4.38,-1.11 30.47,-7.211 59.67,-3.141 18.28,2.539 32.17,7.949 40.59,12.051 7.03,3.398 11.54,6.461 13.28,7.73 -1.74,6.43 -6.52,16.508 -10.9,22.77 -12.52,17.91 -26.05,22.5 -32.97,23.66" /></g></g></svg>